<svg width="38" height="42" viewBox="0 0 38 42" fill="none" xmlns="http://www.w3.org/2000/svg">
<path d="M11.0834 3.5C5.24615 3.5 1.58337 9.12581 1.58337 14.875C1.58337 20.722 4.2341 25.7239 7.55493 29.6269C10.8809 33.536 15.0053 36.4989 18.292 38.3152C18.7377 38.5616 19.2624 38.5616 19.7081 38.3152C22.9948 36.4989 27.1192 33.536 30.4452 29.6269C33.766 25.7239 36.4167 20.722 36.4167 14.875C36.4167 9.13523 32.8207 3.5 26.9167 3.5C24.1855 3.5 22.2508 4.33964 20.7712 5.61709C20.0743 6.21874 19.4925 6.91269 18.9959 7.58869C18.4937 6.91125 17.9061 6.21715 17.2028 5.61382C15.7206 4.34218 13.789 3.5 11.0834 3.5Z" fill="black"/>
</svg>
