<svg width="20" height="20" viewBox="0 0 20 20" fill="none" xmlns="http://www.w3.org/2000/svg">
<path d="M19.4072 2.35706C19.7327 2.03162 19.7327 1.50399 19.4072 1.17855L18.818 0.589292C18.4925 0.263856 17.9649 0.263856 17.6395 0.589293L14.1039 4.12484L12.6307 2.65165C12.3924 2.41332 12.034 2.34202 11.7226 2.47101C11.4112 2.59999 11.2081 2.90386 11.2081 3.24091V7.95495C11.2081 8.41519 11.5812 8.78829 12.0415 8.78829H16.7555C17.0926 8.78829 17.3964 8.58525 17.5254 8.27386C17.6544 7.96246 17.5831 7.60403 17.3448 7.3657L15.8717 5.89261L19.4072 2.35706Z" fill="white"/>
<path d="M1.67153 3.78475C1.58746 2.59367 2.59605 1.6667 3.78764 1.6667H6.33834C6.95001 1.6667 7.50169 2.03525 7.73694 2.60104L8.80357 5.16625C9.0634 5.79114 8.879 6.51291 8.35147 6.9358L7.68658 7.46882C7.38986 7.70669 7.28898 8.11686 7.46491 8.45401C8.36908 10.1868 9.70529 11.6574 11.3303 12.7222C11.6733 12.947 12.1264 12.8576 12.3823 12.5371L13.0751 11.6692C13.4971 11.1406 14.2174 10.9558 14.841 11.2162L17.4009 12.285C17.9655 12.5208 18.3333 13.0736 18.3333 13.6866V14.5722H18.2991V16.2082C18.2991 17.4023 17.374 18.413 16.1854 18.3284C8.58508 17.7877 2.21035 11.4182 1.67153 3.78475Z" fill="white"/>
</svg>
