<svg width="32" height="32" viewBox="0 0 32 32" fill="none" xmlns="http://www.w3.org/2000/svg">
<path d="M13.5 10C15.2239 10 16.8772 10.6848 18.0962 11.9038C19.3152 13.1228 20 14.7761 20 16.5C20 18.11 19.41 19.59 18.44 20.73L18.71 21H19.5L24.5 26L23 27.5L18 22.5V21.71L17.73 21.44C16.59 22.41 15.11 23 13.5 23C11.7761 23 10.1228 22.3152 8.90381 21.0962C7.68482 19.8772 7 18.2239 7 16.5C7 14.7761 7.68482 13.1228 8.90381 11.9038C10.1228 10.6848 11.7761 10 13.5 10V10ZM13.5 12C11 12 9 14 9 16.5C9 19 11 21 13.5 21C16 21 18 19 18 16.5C18 14 16 12 13.5 12Z" fill="#787885"/>
</svg>
