<svg width="37" height="40" viewBox="0 0 37 40" fill="none" xmlns="http://www.w3.org/2000/svg">
<path d="M6.33333 0.3125H1C0.447715 0.3125 0 0.760215 0 1.3125V3.6875C0 4.23978 0.447715 4.6875 1 4.6875H4.76884L9.08241 24.7797C9.78924 28.072 12.4144 30.4139 15.4608 30.4977V30.5H27.8467C30.9323 30.5 33.5689 28.0422 34.0893 24.6807L36.0773 11.8403C36.4083 9.70249 34.9184 7.75 32.956 7.75H9.49457L8.25903 1.99496C8.04731 1.00877 7.25037 0.3125 6.33333 0.3125Z" fill="black"/>
<path d="M15.8333 35.75C15.8333 37.683 14.4156 39.25 12.6667 39.25C10.9178 39.25 9.5 37.683 9.5 35.75C9.5 33.817 10.9178 32.25 12.6667 32.25C14.4156 32.25 15.8333 33.817 15.8333 35.75Z" fill="black"/>
<path d="M33.25 35.75C33.25 37.683 31.8322 39.25 30.0833 39.25C28.3344 39.25 26.9167 37.683 26.9167 35.75C26.9167 33.817 28.3344 32.25 30.0833 32.25C31.8322 32.25 33.25 33.817 33.25 35.75Z" fill="black"/>
</svg>
